<svg width="4735" height="535" viewBox="0 0 4735 535" fill="none" xmlns="http://www.w3.org/2000/svg">
<mask id="path-1-outside-1_124_15" maskUnits="userSpaceOnUse" x="0" y="0" width="4735" height="535" fill="black">
<rect fill="white" width="4735" height="535"/>
<path d="M5 530V5H155V80H230V155H305V230H380V5H530V530H380V380H305V305H230V230H155V530H5ZM2630 80V5H2780V80H2630ZM2480 530V455H2630V230H2555V155H2780V455H2930V530H2480Z"/>
<path d="M680 530V455H605V380H680V305H980V230H680V155H1055V230H1130V530H680ZM755 455H980V380H755V455ZM1280 530V455H1205V230H1280V155H1730V230H1355V455H1730V530H1280ZM1805 530V5H1955V155H2255V230H2330V530H2180V230H1955V530H1805ZM3005 530V5H3155V305H3305V230H3380V155H3530V230H3455V305H3380V380H3455V455H3530V530H3380V455H3305V380H3155V530H3005ZM3680 530V455H3605V230H3680V155H4055V230H4130V380H3755V455H4055V530H3680ZM3755 305H3980V230H3755V305ZM4430 530V230H4280V155H4430V5H4580V155H4730V230H4580V530H4430Z"/>
</mask>
<path d="M5 530V5H155V80H230V155H305V230H380V5H530V530H380V380H305V305H230V230H155V530H5ZM2630 80V5H2780V80H2630ZM2480 530V455H2630V230H2555V155H2780V455H2930V530H2480Z" fill="#FF0000"/>
<path d="M680 530V455H605V380H680V305H980V230H680V155H1055V230H1130V530H680ZM755 455H980V380H755V455ZM1280 530V455H1205V230H1280V155H1730V230H1355V455H1730V530H1280ZM1805 530V5H1955V155H2255V230H2330V530H2180V230H1955V530H1805ZM3005 530V5H3155V305H3305V230H3380V155H3530V230H3455V305H3380V380H3455V455H3530V530H3380V455H3305V380H3155V530H3005ZM3680 530V455H3605V230H3680V155H4055V230H4130V380H3755V455H4055V530H3680ZM3755 305H3980V230H3755V305ZM4430 530V230H4280V155H4430V5H4580V155H4730V230H4580V530H4430Z" fill="#121212"/>
<path d="M5 530H0V535H5V530ZM5 5V0H0V5H5ZM155 5H160V0H155V5ZM155 80H150V85H155V80ZM230 80H235V75H230V80ZM230 155H225V160H230V155ZM305 155H310V150H305V155ZM305 230H300V235H305V230ZM380 230V235H385V230H380ZM380 5V0H375V5H380ZM530 5H535V0H530V5ZM530 530V535H535V530H530ZM380 530H375V535H380V530ZM380 380H385V375H380V380ZM305 380H300V385H305V380ZM305 305H310V300H305V305ZM230 305H225V310H230V305ZM230 230H235V225H230V230ZM155 230V225H150V230H155ZM155 530V535H160V530H155ZM10 530V5H0V530H10ZM5 10H155V0H5V10ZM150 5V80H160V5H150ZM155 85H230V75H155V85ZM225 80V155H235V80H225ZM230 160H305V150H230V160ZM300 155V230H310V155H300ZM305 235H380V225H305V235ZM385 230V5H375V230H385ZM380 10H530V0H380V10ZM525 5V530H535V5H525ZM530 525H380V535H530V525ZM385 530V380H375V530H385ZM380 375H305V385H380V375ZM310 380V305H300V380H310ZM305 300H230V310H305V300ZM235 305V230H225V305H235ZM230 225H155V235H230V225ZM150 230V530H160V230H150ZM155 525H5V535H155V525ZM680 530H675V535H680V530ZM680 455H685V450H680V455ZM605 455H600V460H605V455ZM605 380V375H600V380H605ZM680 380V385H685V380H680ZM680 305V300H675V305H680ZM980 305V310H985V305H980ZM980 230H985V225H980V230ZM680 230H675V235H680V230ZM680 155V150H675V155H680ZM1055 155H1060V150H1055V155ZM1055 230H1050V235H1055V230ZM1130 230H1135V225H1130V230ZM1130 530V535H1135V530H1130ZM755 455H750V460H755V455ZM980 455V460H985V455H980ZM980 380H985V375H980V380ZM755 380V375H750V380H755ZM685 530V455H675V530H685ZM680 450H605V460H680V450ZM610 455V380H600V455H610ZM605 385H680V375H605V385ZM685 380V305H675V380H685ZM680 310H980V300H680V310ZM985 305V230H975V305H985ZM980 225H680V235H980V225ZM685 230V155H675V230H685ZM680 160H1055V150H680V160ZM1050 155V230H1060V155H1050ZM1055 235H1130V225H1055V235ZM1125 230V530H1135V230H1125ZM1130 525H680V535H1130V525ZM755 460H980V450H755V460ZM985 455V380H975V455H985ZM980 375H755V385H980V375ZM750 380V455H760V380H750ZM1280 530H1275V535H1280V530ZM1280 455H1285V450H1280V455ZM1205 455H1200V460H1205V455ZM1205 230V225H1200V230H1205ZM1280 230V235H1285V230H1280ZM1280 155V150H1275V155H1280ZM1730 155H1735V150H1730V155ZM1730 230V235H1735V230H1730ZM1355 230V225H1350V230H1355ZM1355 455H1350V460H1355V455ZM1730 455H1735V450H1730V455ZM1730 530V535H1735V530H1730ZM1285 530V455H1275V530H1285ZM1280 450H1205V460H1280V450ZM1210 455V230H1200V455H1210ZM1205 235H1280V225H1205V235ZM1285 230V155H1275V230H1285ZM1280 160H1730V150H1280V160ZM1725 155V230H1735V155H1725ZM1730 225H1355V235H1730V225ZM1350 230V455H1360V230H1350ZM1355 460H1730V450H1355V460ZM1725 455V530H1735V455H1725ZM1730 525H1280V535H1730V525ZM1805 530H1800V535H1805V530ZM1805 5V0H1800V5H1805ZM1955 5H1960V0H1955V5ZM1955 155H1950V160H1955V155ZM2255 155H2260V150H2255V155ZM2255 230H2250V235H2255V230ZM2330 230H2335V225H2330V230ZM2330 530V535H2335V530H2330ZM2180 530H2175V535H2180V530ZM2180 230H2185V225H2180V230ZM1955 230V225H1950V230H1955ZM1955 530V535H1960V530H1955ZM1810 530V5H1800V530H1810ZM1805 10H1955V0H1805V10ZM1950 5V155H1960V5H1950ZM1955 160H2255V150H1955V160ZM2250 155V230H2260V155H2250ZM2255 235H2330V225H2255V235ZM2325 230V530H2335V230H2325ZM2330 525H2180V535H2330V525ZM2185 530V230H2175V530H2185ZM2180 225H1955V235H2180V225ZM1950 230V530H1960V230H1950ZM1955 525H1805V535H1955V525ZM2630 80H2625V85H2630V80ZM2630 5V0H2625V5H2630ZM2780 5H2785V0H2780V5ZM2780 80V85H2785V80H2780ZM2480 530H2475V535H2480V530ZM2480 455V450H2475V455H2480ZM2630 455V460H2635V455H2630ZM2630 230H2635V225H2630V230ZM2555 230H2550V235H2555V230ZM2555 155V150H2550V155H2555ZM2780 155H2785V150H2780V155ZM2780 455H2775V460H2780V455ZM2930 455H2935V450H2930V455ZM2930 530V535H2935V530H2930ZM2635 80V5H2625V80H2635ZM2630 10H2780V0H2630V10ZM2775 5V80H2785V5H2775ZM2780 75H2630V85H2780V75ZM2485 530V455H2475V530H2485ZM2480 460H2630V450H2480V460ZM2635 455V230H2625V455H2635ZM2630 225H2555V235H2630V225ZM2560 230V155H2550V230H2560ZM2555 160H2780V150H2555V160ZM2775 155V455H2785V155H2775ZM2780 460H2930V450H2780V460ZM2925 455V530H2935V455H2925ZM2930 525H2480V535H2930V525ZM3005 530H3000V535H3005V530ZM3005 5V0H3000V5H3005ZM3155 5H3160V0H3155V5ZM3155 305H3150V310H3155V305ZM3305 305V310H3310V305H3305ZM3305 230V225H3300V230H3305ZM3380 230V235H3385V230H3380ZM3380 155V150H3375V155H3380ZM3530 155H3535V150H3530V155ZM3530 230V235H3535V230H3530ZM3455 230V225H3450V230H3455ZM3455 305V310H3460V305H3455ZM3380 305V300H3375V305H3380ZM3380 380H3375V385H3380V380ZM3455 380H3460V375H3455V380ZM3455 455H3450V460H3455V455ZM3530 455H3535V450H3530V455ZM3530 530V535H3535V530H3530ZM3380 530H3375V535H3380V530ZM3380 455H3385V450H3380V455ZM3305 455H3300V460H3305V455ZM3305 380H3310V375H3305V380ZM3155 380V375H3150V380H3155ZM3155 530V535H3160V530H3155ZM3010 530V5H3000V530H3010ZM3005 10H3155V0H3005V10ZM3150 5V305H3160V5H3150ZM3155 310H3305V300H3155V310ZM3310 305V230H3300V305H3310ZM3305 235H3380V225H3305V235ZM3385 230V155H3375V230H3385ZM3380 160H3530V150H3380V160ZM3525 155V230H3535V155H3525ZM3530 225H3455V235H3530V225ZM3450 230V305H3460V230H3450ZM3455 300H3380V310H3455V300ZM3375 305V380H3385V305H3375ZM3380 385H3455V375H3380V385ZM3450 380V455H3460V380H3450ZM3455 460H3530V450H3455V460ZM3525 455V530H3535V455H3525ZM3530 525H3380V535H3530V525ZM3385 530V455H3375V530H3385ZM3380 450H3305V460H3380V450ZM3310 455V380H3300V455H3310ZM3305 375H3155V385H3305V375ZM3150 380V530H3160V380H3150ZM3155 525H3005V535H3155V525ZM3680 530H3675V535H3680V530ZM3680 455H3685V450H3680V455ZM3605 455H3600V460H3605V455ZM3605 230V225H3600V230H3605ZM3680 230V235H3685V230H3680ZM3680 155V150H3675V155H3680ZM4055 155H4060V150H4055V155ZM4055 230H4050V235H4055V230ZM4130 230H4135V225H4130V230ZM4130 380V385H4135V380H4130ZM3755 380V375H3750V380H3755ZM3755 455H3750V460H3755V455ZM4055 455H4060V450H4055V455ZM4055 530V535H4060V530H4055ZM3755 305H3750V310H3755V305ZM3980 305V310H3985V305H3980ZM3980 230H3985V225H3980V230ZM3755 230V225H3750V230H3755ZM3685 530V455H3675V530H3685ZM3680 450H3605V460H3680V450ZM3610 455V230H3600V455H3610ZM3605 235H3680V225H3605V235ZM3685 230V155H3675V230H3685ZM3680 160H4055V150H3680V160ZM4050 155V230H4060V155H4050ZM4055 235H4130V225H4055V235ZM4125 230V380H4135V230H4125ZM4130 375H3755V385H4130V375ZM3750 380V455H3760V380H3750ZM3755 460H4055V450H3755V460ZM4050 455V530H4060V455H4050ZM4055 525H3680V535H4055V525ZM3755 310H3980V300H3755V310ZM3985 305V230H3975V305H3985ZM3980 225H3755V235H3980V225ZM3750 230V305H3760V230H3750ZM4430 530H4425V535H4430V530ZM4430 230H4435V225H4430V230ZM4280 230H4275V235H4280V230ZM4280 155V150H4275V155H4280ZM4430 155V160H4435V155H4430ZM4430 5V0H4425V5H4430ZM4580 5H4585V0H4580V5ZM4580 155H4575V160H4580V155ZM4730 155H4735V150H4730V155ZM4730 230V235H4735V230H4730ZM4580 230V225H4575V230H4580ZM4580 530V535H4585V530H4580ZM4435 530V230H4425V530H4435ZM4430 225H4280V235H4430V225ZM4285 230V155H4275V230H4285ZM4280 160H4430V150H4280V160ZM4435 155V5H4425V155H4435ZM4430 10H4580V0H4430V10ZM4575 5V155H4585V5H4575ZM4580 160H4730V150H4580V160ZM4725 155V230H4735V155H4725ZM4730 225H4580V235H4730V225ZM4575 230V530H4585V230H4575ZM4580 525H4430V535H4580V525Z" fill="#F9F9F9" mask="url(#path-1-outside-1_124_15)"/>
</svg>
